# xmcd
#
# Track frame offsets: 
#        150
#        8759
#        23354
#        34458
#        48299
#        60880
#        68521
#        79081
#        88740
#        98292
#        109139
#        119435
#        129531
#        138200
#        147471
#        157957
#        169613
#
# Disc length: 2417 seconds
#
# Revision: 2
# Processed by: cddbd v1.4PL0 Copyright (c) Steve Scherf et al.
# Submitted via: ExactAudioCopy v0.90a11
#
DISCID=cb096f11
DTITLE=Ian Calford and The Brakemen - Strapped For Cash
DYEAR=2000
DGENRE=Country
TTITLE0=When Papa Played The Dobro
TTITLE1=Brakeman's Blues
TTITLE2=Hey Porter
TTITLE3=Folsom Prison Blues
TTITLE4=Doin' My Time
TTITLE5=Boss Jack
TTITLE6=There You Go
TTITLE7=Frankie's Man, Johnny
TTITLE8=Luther Played The Boogie
TTITLE9=Get Rhythm
TTITLE10=New Mexico
TTITLE11=Blue Train
TTITLE12=Pickin' Time
TTITLE13=Delia's Gone
TTITLE14=Transfusion Blues
TTITLE15=Saturday Night In Hickman County
TTITLE16=Mean-eyed Cat
EXTD=YEAR: 2000 ID3G: 2 Johnny Cash Tribute CD produced in GB.
EXTT0=
EXTT1=
EXTT2=
EXTT3=
EXTT4=
EXTT5=
EXTT6=
EXTT7=
EXTT8=
EXTT9=
EXTT10=
EXTT11=
EXTT12=
EXTT13=
EXTT14=
EXTT15=
EXTT16=
PLAYORDER=
